<svg xmlns="http://www.w3.org/2000/svg" width="337.085" height="337.086" viewBox="0 0 337.085 337.086"><path d="M168.54 0C75.62 0 .012 75.61.012 168.543c0 92.93 75.606 168.543 168.528 168.543 92.933 0 168.534-75.613 168.534-168.543C337.074 75.61 261.474 0 168.54 0zm102.865 224.327c-2.407 2.402-5.56 3.615-8.713 3.615-3.158 0-6.31-1.213-8.72-3.615L168.54 138.9l-85.424 85.427c-4.816 4.815-12.63 4.815-17.447 0-4.82-4.815-4.82-12.622 0-17.438l94.15-94.142c4.823-4.815 12.614-4.815 17.427 0l94.152 94.14c4.82 4.817 4.82 12.624.005 17.44z" fill="#f5d76e"/></svg>